<svg id="SVGS" xmlns="http://www.w3.org/2000/svg" viewBox="0 0 88.31 82"><defs><style>.cls-1,.cls-2{fill:none;stroke:#0078bb;stroke-linecap:round;stroke-linejoin:round;stroke-width:1.14px}.cls-2{fill:#0078bb}</style></defs><title>MARYOOTORY-MOVIL-SVG</title><path class="cls-1" d="M87.52 15.59L53.28 51.12 3.68 37.3 41.47 5.72l46.05 9.87zM86.93 43.71V17.07"/><path class="cls-1" d="M4.28 50.62l49.59 12.83 32.47-32.57"/><path class="cls-1" d="M5.46 63.45l49.59 12.83 32.47-32.57M3.09 37.79s-5.9 5.92 1.18 12.83M4.27 50.62s-5.9 5.92 1.18 12.83M6.64 43.71l42.51 10.86M6.64 46.67l42.51 10.86M6.64 56.54L49.15 67.4M6.64 59.51l42.51 10.85M84.57 23.98l-28.34 29.6M84.57 27.92L56.23 57.53M84.57 36.81l-28.34 29.6M84.57 40.75L56.23 70.36"/><path class="cls-2" d="M40.88 13.12l-9.45 7.9 35.43 7.89 8.27-7.89-34.25-7.9z"/></svg>