<svg xmlns="http://www.w3.org/2000/svg" viewBox="0 0 320 591"><defs><style>.cls-1,.cls-12,.cls-18,.cls-4{fill:none}.cls-2{isolation:isolate}.cls-11,.cls-3,.cls-5{fill:#fff}.cls-18,.cls-4{stroke:#29abe2;stroke-width:2px}.cls-11,.cls-12,.cls-13,.cls-14,.cls-18,.cls-4,.cls-5,.cls-6,.cls-8{stroke-linecap:round;stroke-linejoin:round}.cls-4{stroke-dasharray:12.64}.cls-5{stroke:#fff;stroke-width:5.33px}.cls-6{fill:#724626}.cls-11,.cls-12,.cls-13,.cls-14,.cls-16,.cls-6,.cls-8{stroke:#22201b}.cls-11,.cls-12,.cls-13,.cls-14,.cls-6,.cls-8{stroke-width:1.2px}.cls-7{fill:#56351b}.cls-8{fill:#f4ddd0}.cls-9{fill:#efccbd}.cls-10{clip-path:url(#clip-path)}.cls-13{fill:#cf482b}.cls-14,.cls-16{fill:#22201b}.cls-15{fill:#bd3d2b}.cls-16{stroke-miterlimit:10;stroke-width:.77px}.cls-17{fill:#8fcadd;opacity:.25;mix-blend-mode:multiply}</style><clipPath id="clip-path"><path class="cls-1" d="M161.05 229.32c27.1.17 53.22-10.21 55.37-48.38 0 0-29-16.39-27.68-27.68 0 0-21.5 19.08-49.46 22.31l8.06-8.33s-28.76 14.52-42.2 16.4c0 0-1.69 11 1 20.62 3.57 12.37 13.75 24.81 54.91 25.06z"/></clipPath></defs><title>gracias-fondo</title><g class="cls-2"><path class="cls-3" d="M-170-12h467v607h-467z" id="Capa_11" data-name="Capa 11"/><g id="Capa_2" data-name="Capa 2"><path class="cls-4" d="M333.5 497S318 375.39 214 402c-71.19 18.21-233.08 31.77-197-106 33-126 179.32-17.89 255-47 26-10 33-57 11-79"/><path class="cls-5" d="M222.89 181.21a52.64 52.64 0 0 0 1.2-9.68c-.27-7.79-1.88-60.21-34.14-46.5 0 0-30.64-25.53-73.11 4.57-30.45 21.58-30.37 45.4-25.55 60.59.4 5.08 2 8 4 9.51.83 1.53 1.62 2.82 2.29 3.82 6.32 9.41 9 15.86 0 23.34-10.41 8.64-.14 18.26 19.22 17.51 14-.54.81 29.56-8.6 15.59 0 0 10.48 21 36 15.59s29.83-15.05 36.28-28 9.14-10.22 22.58-9.68 22.77-13.17 18.64-26.61a34.88 34.88 0 0 1-1.34-10.25c3.6 0 7.6-2.2 9.38-10.54.06.05 2.46-10.02-6.85-9.26z"/><path class="cls-6" d="M189.95 125s-30.64-25.53-73.11 4.57-25.55 64.51-19.22 73.91 9 15.86 0 23.34c-10.41 8.64-.14 18.26 19.22 17.51 14-.54.81 29.56-8.6 15.59 0 0 10.48 21 36 15.59s29.83-15.05 36.28-28 9.14-10.22 22.58-9.68 22.77-13.17 18.64-26.61 2.59-32 2.32-39.78-1.86-60.12-34.11-46.44z"/><path class="cls-7" d="M159.2 226.35s-5.08 5.35-.95 13.49-3.21 16-3.21 16 4.92-9.48 1.09-15.54-6.51-14.62 3.07-13.95zM125.71 219.72s-5.6 7.14 8.05 12.56 16.09 34.48-6.31 35.88c0 0 29-.5 20-30.46-4-13.3-27.13-19.52-9.28-25.34s-12.46 7.36-12.46 7.36z"/><path class="cls-7" d="M214.41 195.89c10.37-22.27 2.75 3.17 4.11 19.23 1.07 12.63-9.82 16.27-27.58 15.22s-20.35 8.39-20.18 17.32c.24 11.93-8 23.12-36.4 22.77 0 0 29.53.45 29.53-16.27 0-24.78 11.73-32.12 25-31.42s24.7-3.1 24.6-11.86a89.78 89.78 0 0 1 .92-14.99zM184.34 145.63s-23.81 13.13-34.48 24.37c0 0 4.38-18.41 34.48-24.37zM182.35 139s-35.57 8.23-60.69 33.16c-.01-.01 16.12-30.16 60.69-33.16z"/><path class="cls-7" d="M184.34 134.41s-59.69-4.38-81 41.31c-.04 0 9.76-53.39 81-41.31z"/><path class="cls-7" d="M184.34 126.91s-38.66-21.36-77.79 17.33c0 0 36.45-29.32 77.79-17.33z"/><path class="cls-8" d="M91.23 189.26s-1.07-15.05 15.32-4.84l-.64 15.82S92 206.46 91.23 189.26zM229.8 190.52s3.5-14.68-14.33-7.26L213.53 199s12.69 8.36 16.27-8.48z"/><ellipse class="cls-9" cx="219.59" cy="191.12" rx="7.15" ry="5.88" transform="rotate(-68.88 219.577 191.116)"/><ellipse class="cls-9" cx="99.64" cy="192.09" rx="5.88" ry="7.15" transform="rotate(-23.99 99.648 192.111)"/><path class="cls-8" d="M161.85 229.13c27.1.17 53.22-10.21 55.37-48.38 0 0-29-16.39-27.68-27.68 0 0-21.5 19.08-49.45 22.31l8.06-8.33s-28.76 14.52-42.2 16.4c0 0-1.69 11 1 20.62 3.56 12.37 13.74 24.81 54.9 25.06z"/><path class="cls-9" d="M147.7 189.48c0 9.23-5.83 16.72-13 16.72s-13-7.48-13-16.72 5.83-15.11 13-15.11 13 5.88 13 15.11z"/><path class="cls-10 cls-9" d="M190.46 156c-.83.5-29.32 25.51-57.85 29.66l4.17-11.36s-27.63 14.34-37.94 21.25c-3.92 2.63 5.79-20.91 5.79-20.91l83.85-27.75 29.82 27.88-1.95 7.23s-22.45-28-25.89-26z"/><ellipse class="cls-9" cx="183.79" cy="189.48" rx="13.03" ry="16.72"/><path class="cls-9" d="M183.16 211.66s1.25 13.52-5.26 10.95-2.78-8-2.78-8z"/><ellipse class="cls-11" cx="183.79" cy="188.05" rx="12.1" ry="13.3"/><ellipse class="cls-11" cx="134.68" cy="188.05" rx="12.1" ry="13.3"/><path class="cls-12" d="M134.68 214s18 6.72 49.66-2.69"/><path class="cls-13" d="M178.16 222.23s4.84-.48 2.42-9.87c0 0-4.37 1.26-8.89 2 0 .05.31 10.29 6.47 7.87z"/><ellipse class="cls-14" cx="182.35" cy="188.39" rx="8.91" ry="9.57"/><ellipse class="cls-14" cx="136.36" cy="188.39" rx="8.91" ry="9.57"/><path class="cls-15" d="M175.12 214.62c-.54 0 2.27 7.26 2.62 4.46a22.23 22.23 0 0 0 0-5.26z"/><path class="cls-16" d="M156.55 186.99h4.78v4.97h-4.78z"/><path class="cls-12" d="M161.85 229.15c27.1.16 53.22-10.22 55.37-48.38 0 0-29-16.4-27.68-27.68 0 0-21.5 19.08-49.45 22.31l8.06-8.33s-28.76 14.52-42.2 16.4c0 0-1.69 11 1 20.62 3.56 12.37 13.74 24.81 54.9 25.06z"/><path class="cls-17" d="M176.28 166.12h19.08s7.53-.23 8.6 10.52 1.61 18.82 0 23.12-2.42 7.26-8.6 8.33-21.23 2.15-25.8 0-6.72-2.15-7.53-9.95-1.07-16.93 0-21.77c.94-4.23.59-7.9 6.1-9.63.79-.25 8.15-.62 8.15-.62z"/><path class="cls-12" d="M176.28 166.12h19.08s7.53-.23 8.6 10.52 1.61 18.82 0 23.12-2.42 7.26-8.6 8.33-21.23 2.15-25.8 0-6.72-2.15-7.53-9.95-1.07-16.93 0-21.77c.94-4.23.59-7.9 6.1-9.63.79-.25 8.15-.62 8.15-.62z"/><path class="cls-17" d="M127.81 166.12h19.08s7.53-.23 8.6 10.52 1.61 18.82 0 23.12-2.42 7.26-8.6 8.33-21.23 2.15-25.8 0-6.72-2.15-7.53-9.95-1.08-16.93 0-21.77c.94-4.23.59-7.9 6.1-9.63.78-.25 8.15-.62 8.15-.62z"/><path class="cls-12" d="M127.81 166.12h19.08s7.53-.23 8.6 10.52 1.61 18.82 0 23.12-2.42 7.26-8.6 8.33-21.23 2.15-25.8 0-6.72-2.15-7.53-9.95-1.08-16.93 0-21.77c.94-4.23.59-7.9 6.1-9.63.78-.25 8.15-.62 8.15-.62z"/><path class="cls-7" d="M191.26 147.91s12.71 28.73 27 29.25a190 190 0 0 1-27-29.25zM192.92 142.31s18.73 25.19 25.38 29.84c0 0-3.78-11.93-25.38-29.84zM191.26 131.28s13.92-11.39 24.25 5.77c-.01 0-14.19-12.05-24.25-5.77zM107.33 213.82s3.59 7.1-2.7 14.61c-5.18 6.19 3.22 8.58 11.62 10.33s22.81 1 6.33 26.78c0 0 24-22.4 4.87-27.66s-20.39-7.88-17.55-13-1-9.4-2.57-11.06z"/><path class="cls-18" d="M235 141.88c.64 2.57 15.45 32.18 15.45 32.18L298 154.82l-14.73-34.65z"/><path class="cls-18" d="M268.33 148.96L235 141.88 283.27 120l-14.94 28.96z"/></g></g></svg>