<svg xmlns="http://www.w3.org/2000/svg" viewBox="0 0 320 374"><defs><style>.cls-1,.cls-13,.cls-19,.cls-3{fill:none}.cls-2{isolation:isolate}.cls-19,.cls-3{stroke:#29abe2;stroke-width:2px}.cls-12,.cls-13,.cls-14,.cls-15,.cls-19,.cls-3,.cls-6,.cls-7,.cls-9{stroke-linecap:round;stroke-linejoin:round}.cls-3{stroke-dasharray:12.64}.cls-4{fill:#0773a3}.cls-5{fill:#666}.cls-12,.cls-6{fill:#fff}.cls-6{stroke:#fff;stroke-width:5.33px}.cls-7{fill:#724626}.cls-12,.cls-13,.cls-14,.cls-15,.cls-17,.cls-7,.cls-9{stroke:#22201b}.cls-12,.cls-13,.cls-14,.cls-15,.cls-7,.cls-9{stroke-width:1.2px}.cls-8{fill:#56351b}.cls-9{fill:#f4ddd0}.cls-10{fill:#efccbd}.cls-11{clip-path:url(#clip-path)}.cls-14{fill:#cf482b}.cls-15,.cls-17{fill:#22201b}.cls-16{fill:#bd3d2b}.cls-17{stroke-miterlimit:10;stroke-width:.77px}.cls-18{fill:#8fcadd;opacity:.25;mix-blend-mode:multiply}</style><clipPath id="clip-path"><path class="cls-1" d="M161.05 139.32c27.1.17 53.22-10.21 55.37-48.38 0 0-29-16.39-27.68-27.68 0 0-21.5 19.08-49.46 22.31l8.06-8.33s-28.76 14.52-42.2 16.4c0 0-1.69 11 1 20.62 3.57 12.37 13.75 24.81 54.91 25.06z"/></clipPath></defs><title>gracias-fondo</title><g class="cls-2"><g id="Capa_2" data-name="Capa 2"><path class="cls-3" d="M333.5 407S318 285.39 214 312c-71.19 18.21-233.08 31.77-197-106 33-126 179.32-17.89 255-47 26-10 33-57 11-79"/><path class="cls-4" d="M64.63 210.61a27.26 27.26 0 0 0-8-1.7 7.73 7.73 0 0 0-3.79.91 8.58 8.58 0 0 0-2.76 2.4 10.75 10.75 0 0 0-1.69 3.44 14.43 14.43 0 0 0 .07 8.29 11.09 11.09 0 0 0 1.8 3.49 8.67 8.67 0 0 0 2.74 2.35 7.53 7.53 0 0 0 3.58.86 17.51 17.51 0 0 0 2.35-.18v-9.73l10.14-1.17v18.75A33.76 33.76 0 0 1 55 241.43 18.87 18.87 0 0 1 40.66 235a22.06 22.06 0 0 1-5.93-15.53 20.73 20.73 0 0 1 6-15.06 19.06 19.06 0 0 1 14.27-6.1 30.33 30.33 0 0 1 13.58 3zM111.4 240.38a23 23 0 0 1-5.41 1.05q-10.63 0-13.35-9.9L91 224.85h-2.71v15.65H75.46v-41.25h17.92a25.71 25.71 0 0 1 6.56.81 17.33 17.33 0 0 1 5.34 2.34 11.48 11.48 0 0 1 3.58 3.79 10.18 10.18 0 0 1 1.3 5.19 13.14 13.14 0 0 1-.53 3.88 10.27 10.27 0 0 1-1.53 3.08 11.23 11.23 0 0 1-2.45 2.42 18.09 18.09 0 0 1-3.28 1.88l.26 1.44q.09.5.17.85l.14.59.31 1.26a9.44 9.44 0 0 0 .79 1.89 3.85 3.85 0 0 0 1.13 1.26 4.64 4.64 0 0 0 1.7.7 11.93 11.93 0 0 0 2.48.22 7.07 7.07 0 0 0 .73-.06l1.3-.18zM98.43 212a3.48 3.48 0 0 0-.47-1.89 3.26 3.26 0 0 0-1.3-1.17 6.2 6.2 0 0 0-1.95-.59 16.88 16.88 0 0 0-2.41-.16h-4v8.26h2.23l1.89-.09a17.94 17.94 0 0 0 2.18-.36 6.63 6.63 0 0 0 1.93-.7 3.84 3.84 0 0 0 1.38-1.3 3.77 3.77 0 0 0 .52-2zM124 199.25h17.81l11.69 41.25h-13.8l-1.55-7.91h-10.43l-1.66 7.91h-13.23zm12.77 26l-3.84-18-4 18zM177.93 230.59a15.75 15.75 0 0 0 1.86-.1 14.52 14.52 0 0 0 1.7-.31 16.52 16.52 0 0 0 1.73-.53q.89-.32 2-.76l1.6 9.52a21.43 21.43 0 0 1-11.11 3 20.24 20.24 0 0 1-14.58-5.86q-6.36-6.09-6.44-15.73a23.15 23.15 0 0 1 1.58-8.64 20.54 20.54 0 0 1 4.35-6.81 19.77 19.77 0 0 1 6.56-4.45 20.83 20.83 0 0 1 8.19-1.6 22.22 22.22 0 0 1 11.4 3l-1.55 9.32a21.23 21.23 0 0 0-7.62-1.64q-4.78 0-7.26 2.83t-2.48 8a14.29 14.29 0 0 0 .67 4.56 9.25 9.25 0 0 0 2 3.4 8.41 8.41 0 0 0 3.16 2.12 11.71 11.71 0 0 0 4.24.68zM192.14 199.25h13.52v41.25h-13.52zM220.95 199.25h17.81l11.69 41.25h-13.8l-1.55-7.91h-10.43L223 240.5h-13.22zm12.77 26l-3.84-18-4 18zM283.47 227a16.94 16.94 0 0 1-1.1 6.4 11.53 11.53 0 0 1-3.16 4.48 13.45 13.45 0 0 1-5.06 2.65 24 24 0 0 1-6.77.88 33 33 0 0 1-14.72-3.11 80.12 80.12 0 0 0 2.75-8.14q.17-.62.34-1.05l4.3 1.08 1.66.38q.89.21 1.78.37l1.69.28a9.86 9.86 0 0 0 1.4.12q1 0 1.88-.07a5.73 5.73 0 0 0 1.59-.34 2.62 2.62 0 0 0 1.1-.76 2 2 0 0 0 .42-1.35 2.09 2.09 0 0 0-.95-1.73 10.19 10.19 0 0 0-2.36-1.26 29.36 29.36 0 0 0-3.11-1q-1.69-.45-3.15-1a16 16 0 0 1-3.78-1.76 12.86 12.86 0 0 1-3-2.65 11.78 11.78 0 0 1-2-3.49 12.35 12.35 0 0 1-.72-4.29q0-13.36 15.69-13.36a30.91 30.91 0 0 1 13.81 3.19l-3.15 9-4.4-1.16q-1.62-.42-2.59-.63t-1.55-.26a11.83 11.83 0 0 0-1.2-.06h-1.92a4 4 0 0 0-2 .4 1.72 1.72 0 0 0-.69 1.63q0 1.85 3.15 2.81 7.76 1.85 11.76 5.36a11 11 0 0 1 4.06 8.44zM73.7 274.72a5.35 5.35 0 0 1-2.73-.67 5 5 0 0 1-1.97-2.24v6.46l-6 1.16v-19.25h6v2.51a4.9 4.9 0 0 1 1.89-2.25 5.3 5.3 0 0 1 2.73-.68 7.46 7.46 0 0 1 2.5.42 6 6 0 0 1 2.24 1.47 8.21 8.21 0 0 1 0 11.2 5.8 5.8 0 0 1-2.21 1.46 7.5 7.5 0 0 1-2.45.41zm-4.7-7.47a2.83 2.83 0 0 0 .23 1.15 3 3 0 0 0 .62.91 2.85 2.85 0 0 0 .89.61 2.62 2.62 0 0 0 1.06.22 2.77 2.77 0 0 0 1.2-.24 2.86 2.86 0 0 0 .91-.63 2.92 2.92 0 0 0 .81-2 2.87 2.87 0 0 0-.25-1.22 2.77 2.77 0 0 0-.66-.91 3 3 0 0 0-.92-.57 2.83 2.83 0 0 0-1-.2 2.5 2.5 0 0 0-1.17.26 2.81 2.81 0 0 0-.85.67 3.11 3.11 0 0 0-.54.9 3.48 3.48 0 0 0-.24.95zM82.07 267.22a8 8 0 0 1 .74-3.21 7.1 7.1 0 0 1 1.78-2.34 7.52 7.52 0 0 1 2.57-1.43 9.88 9.88 0 0 1 3.11-.48 9.44 9.44 0 0 1 3.29.55 7.77 7.77 0 0 1 2.58 1.54 6.83 6.83 0 0 1 1.67 2.36 7.52 7.52 0 0 1 .6 3 8 8 0 0 1-.34 2.41 6.88 6.88 0 0 1-.92 1.9 6.57 6.57 0 0 1-1.37 1.48 7.73 7.73 0 0 1-1.7 1 9.12 9.12 0 0 1-1.89.57 10.53 10.53 0 0 1-1.94.18 9.7 9.7 0 0 1-3.33-.54 7.59 7.59 0 0 1-2.58-1.54 6.79 6.79 0 0 1-1.67-2.37 7.71 7.71 0 0 1-.6-3.08zm5.54 0a3.86 3.86 0 0 0 .23 1.39 3 3 0 0 0 .6 1 2.43 2.43 0 0 0 .86.59 2.58 2.58 0 0 0 1 .2 2.53 2.53 0 0 0 1.83-.79 2.93 2.93 0 0 0 .61-1 4.33 4.33 0 0 0 0-2.78 2.85 2.85 0 0 0-.61-1 2.58 2.58 0 0 0-.86-.59 2.53 2.53 0 0 0-1-.2 2.58 2.58 0 0 0-1 .2 2.49 2.49 0 0 0-.86.59 2.91 2.91 0 0 0-.6 1 3.86 3.86 0 0 0-.2 1.39zM100.54 260.18h6v3a5.5 5.5 0 0 1 1.81-2.57 4.32 4.32 0 0 1 2.6-.81l.83 4.74a10 10 0 0 0-4 .59 2 2 0 0 0-1.27 1.88v7.53h-6zM126.74 270.66a10.16 10.16 0 0 0 4.18-1l.69 3.89a13.64 13.64 0 0 1-5.79 1.19 9.12 9.12 0 0 1-3.26-.56 7.54 7.54 0 0 1-2.53-1.56 7 7 0 0 1-1.65-2.37 7.94 7.94 0 0 1 0-6.07 7.13 7.13 0 0 1 1.68-2.36 7.48 7.48 0 0 1 2.49-1.52 8.67 8.67 0 0 1 3-.53 6.87 6.87 0 0 1 2.87.56 5.8 5.8 0 0 1 2.06 1.53 6.46 6.46 0 0 1 1.23 2.27 9.17 9.17 0 0 1 .41 2.77v.73l-8.5 1.13a2.49 2.49 0 0 0 1.11 1.47 4 4 0 0 0 2.01.43zm1.05-5.56a2.11 2.11 0 0 0-2.16-1.81 2 2 0 0 0-.94.21 2 2 0 0 0-.7.59 2.74 2.74 0 0 0-.44.89 4.25 4.25 0 0 0-.17 1.11zM140.39 263.37q-1.69 0-1.69.59a.68.68 0 0 0 .12.4 1.19 1.19 0 0 0 .33.31 2 2 0 0 0 .46.22 2.36 2.36 0 0 0 .5.11 10.4 10.4 0 0 1 2 .52 5.38 5.38 0 0 1 1.62.93 4.13 4.13 0 0 1 1.08 1.42 4.69 4.69 0 0 1 .39 2 5 5 0 0 1-.39 2 4.31 4.31 0 0 1-1.1 1.52 4.84 4.84 0 0 1-1.66.95 6.38 6.38 0 0 1-2.08.33 29.65 29.65 0 0 1-3.32-.17 9 9 0 0 1-2.75-.74l.64-3.34.8.23.56.14.53.11.69.12.74.1a5.83 5.83 0 0 0 .68 0q1.41 0 1.41-.68a.94.94 0 0 0-.21-.47 1.58 1.58 0 0 0-.44-.35 2.83 2.83 0 0 0-.6-.25q-.34-.1-.71-.17a9.42 9.42 0 0 1-1.9-.57 4.3 4.3 0 0 1-1.38-.91 3.61 3.61 0 0 1-.84-1.37 5.88 5.88 0 0 1-.28-1.93 5.12 5.12 0 0 1 .53-2.17 4.14 4.14 0 0 1 1.27-1.47 5.39 5.39 0 0 1 1.89-.83 10.11 10.11 0 0 1 2.37-.26 20.38 20.38 0 0 1 2.53.15 7 7 0 0 1 2.23.66l-.61 3.46a12 12 0 0 0-3.41-.59zM147.35 260.18h6v3a5.5 5.5 0 0 1 1.81-2.57 4.32 4.32 0 0 1 2.6-.81l.83 4.74a10 10 0 0 0-4 .59 2 2 0 0 0-1.27 1.88v7.53h-6zM159.85 255.15a2.58 2.58 0 0 1 .27-1.17 3 3 0 0 1 .71-.93 3.17 3.17 0 0 1 1-.6 3.46 3.46 0 0 1 1.2-.21 3.18 3.18 0 0 1 1.31.26 3.28 3.28 0 0 1 1 .68 3.09 3.09 0 0 1 .64.93 2.56 2.56 0 0 1 .23 1 2.67 2.67 0 0 1-.26 1.19 3 3 0 0 1-.71.93 3.38 3.38 0 0 1-2.21.83 3.49 3.49 0 0 1-1.27-.23 3.1 3.1 0 0 1-1-.63 3.06 3.06 0 0 1-.68-.93 2.69 2.69 0 0 1-.23-1.12zm8.86 18.58a7.15 7.15 0 0 1-3.71 1 5.32 5.32 0 0 1-2.15-.41 4.32 4.32 0 0 1-1.58-1.17 5.13 5.13 0 0 1-1-1.83 8.09 8.09 0 0 1-.33-2.39V260h6v8.67a1.38 1.38 0 0 0 .36 1 1.26 1.26 0 0 0 .91.35 2.39 2.39 0 0 0 1.16-.34zM181.06 274.72a4.72 4.72 0 0 1-4.62-2.92v2.69h-6v-19.11l6-.91v8.21a4.86 4.86 0 0 1 1.86-2.25 5.25 5.25 0 0 1 2.73-.68 6.55 6.55 0 0 1 2.71.57 6.78 6.78 0 0 1 2.21 1.57 7.52 7.52 0 0 1 1.49 2.37 8 8 0 0 1 .55 3 7.7 7.7 0 0 1-.57 3 7.61 7.61 0 0 1-1.52 2.37 7.06 7.06 0 0 1-2.21 1.56 6.29 6.29 0 0 1-2.63.53zm-4.62-7.48a2.91 2.91 0 0 0 .22 1.15 2.85 2.85 0 0 0 1.5 1.52 2.66 2.66 0 0 0 1.07.22 2.62 2.62 0 0 0 1.11-.24 3 3 0 0 0 .9-.64 2.91 2.91 0 0 0 .6-.92 2.84 2.84 0 0 0 .21-1.09 2.89 2.89 0 0 0-.23-1.15 2.85 2.85 0 0 0-.62-.91 2.89 2.89 0 0 0-.9-.6 2.78 2.78 0 0 0-2.17 0 2.74 2.74 0 0 0-.88.6 3 3 0 0 0-.6.88 2.8 2.8 0 0 0-.24 1.07zM190 255.15a2.58 2.58 0 0 1 .27-1.17 3 3 0 0 1 .71-.93 3.17 3.17 0 0 1 1-.6 3.46 3.46 0 0 1 1.2-.21 3.18 3.18 0 0 1 1.31.26 3.28 3.28 0 0 1 1 .68 3.09 3.09 0 0 1 .64.93 2.56 2.56 0 0 1 .23 1 2.67 2.67 0 0 1-.26 1.19 3 3 0 0 1-.71.93 3.38 3.38 0 0 1-2.21.83 3.49 3.49 0 0 1-1.27-.23 3.1 3.1 0 0 1-1-.63 3.06 3.06 0 0 1-.68-.93 2.69 2.69 0 0 1-.23-1.12zm8.86 18.58a7.15 7.15 0 0 1-3.71 1 5.32 5.32 0 0 1-2.15-.41 4.32 4.32 0 0 1-1.58-1.17 5.13 5.13 0 0 1-1-1.83 8.09 8.09 0 0 1-.33-2.39V260h6v8.67a1.38 1.38 0 0 0 .36 1 1.26 1.26 0 0 0 .91.35 2.39 2.39 0 0 0 1.16-.34zM200.48 260.18h6v3a5.5 5.5 0 0 1 1.81-2.57 4.32 4.32 0 0 1 2.6-.81l.83 4.74a10 10 0 0 0-4 .59 2 2 0 0 0-1.27 1.88v7.53h-6zM228.89 263.37a5.08 5.08 0 0 1 1.87-2.7 5.67 5.67 0 0 1 3.34-.91 4.3 4.3 0 0 1 2.15.55 5.32 5.32 0 0 1 1.7 1.54 7.62 7.62 0 0 1 1.12 2.36 10.78 10.78 0 0 1 .4 3v7.25h-6v-7.25a4.55 4.55 0 0 0-.13-1.13 3 3 0 0 0-.38-.9 1.84 1.84 0 0 0-.61-.59 1.57 1.57 0 0 0-.82-.21 1.85 1.85 0 0 0-1 .28 2.38 2.38 0 0 0-.71.69 3 3 0 0 0-.41.92 3.72 3.72 0 0 0-.13.94v7.25h-5.92v-7.25a4.49 4.49 0 0 0-.13-1.11 2.88 2.88 0 0 0-.39-.9 1.94 1.94 0 0 0-.63-.6 1.64 1.64 0 0 0-.84-.22 2 2 0 0 0-.92.21 2.09 2.09 0 0 0-.7.59 2.82 2.82 0 0 0-.45.87 3.7 3.7 0 0 0-.17 1v7.36h-6v-14.23h6v3a5.72 5.72 0 0 1 2-2.59 5.07 5.07 0 0 1 2.84-.79 5.63 5.63 0 0 1 1.52.21 4.65 4.65 0 0 1 1.38.64 5 5 0 0 1 1.16 1.13 6.24 6.24 0 0 1 .86 1.59zM250.45 270.66a10.16 10.16 0 0 0 4.18-1l.69 3.89a13.64 13.64 0 0 1-5.79 1.19 9.12 9.12 0 0 1-3.26-.56 7.54 7.54 0 0 1-2.53-1.56 7 7 0 0 1-1.65-2.37 7.94 7.94 0 0 1 0-6.07 7.13 7.13 0 0 1 1.68-2.36 7.48 7.48 0 0 1 2.49-1.52 8.67 8.67 0 0 1 3-.53 6.87 6.87 0 0 1 2.87.56 5.8 5.8 0 0 1 2.06 1.53 6.46 6.46 0 0 1 1.23 2.27 9.17 9.17 0 0 1 .41 2.77v.73l-8.5 1.13a2.49 2.49 0 0 0 1.11 1.47 4 4 0 0 0 2.01.43zm1.05-5.56a2.11 2.11 0 0 0-2.16-1.81 2 2 0 0 0-.94.21 2 2 0 0 0-.7.59 2.74 2.74 0 0 0-.44.89 4.25 4.25 0 0 0-.17 1.11z"/><path class="cls-5" d="M68.13 288.86a3.15 3.15 0 0 1 1.11 1.32 4.5 4.5 0 0 1 .4 1.94 4.42 4.42 0 0 1-.39 1.92 2.9 2.9 0 0 1-2.73 1.72 2.82 2.82 0 0 1-1.37-.33 2.28 2.28 0 0 1-.92-.92v4.16h-1.75v-8.09a16 16 0 0 0-.11-2H64l.14 1.22a2.14 2.14 0 0 1 .91-1 2.82 2.82 0 0 1 1.46-.37 2.86 2.86 0 0 1 1.62.43zm-.73 4.94a2.61 2.61 0 0 0 .48-1.68 2.79 2.79 0 0 0-.48-1.73 1.59 1.59 0 0 0-1.34-.62 1.65 1.65 0 0 0-1.37.6 2.72 2.72 0 0 0-.48 1.72 2.66 2.66 0 0 0 .48 1.7 1.85 1.85 0 0 0 2.72 0zM75.67 288.52v1.6a2.44 2.44 0 0 0-.92-.18 1.75 1.75 0 0 0-1.36.52 2 2 0 0 0-.47 1.37v3.82h-1.76v-5.07a16 16 0 0 0-.11-2h1.64l.14 1.25a2.1 2.1 0 0 1 .84-1 2.38 2.38 0 0 1 1.3-.36 2 2 0 0 1 .7.05zM77.81 295.31a3.06 3.06 0 0 1-1.26-1.31 4.55 4.55 0 0 1 0-3.91 3.06 3.06 0 0 1 1.26-1.28 3.89 3.89 0 0 1 1.9-.45 3.82 3.82 0 0 1 1.88.45 3.08 3.08 0 0 1 1.25 1.28 4.55 4.55 0 0 1 0 3.91 3.07 3.07 0 0 1-1.25 1.28 3.82 3.82 0 0 1-1.88.45 3.89 3.89 0 0 1-1.9-.42zm3.25-1.5a3.4 3.4 0 0 0 0-3.46 1.83 1.83 0 0 0-2.7 0 3.4 3.4 0 0 0 0 3.46 1.88 1.88 0 0 0 2.72 0zM91.37 291.31v4.34h-1.75v-4.26a1.9 1.9 0 0 0-.32-1.23 1.23 1.23 0 0 0-1-.38 1.7 1.7 0 0 0-1.29.51 1.87 1.87 0 0 0-.49 1.35v4h-1.73v-5.07a16 16 0 0 0-.11-2h1.64l.13 1.16a2.56 2.56 0 0 1 1-1 2.83 2.83 0 0 1 1.41-.35q2.51.02 2.51 2.93zM95.46 289.89v3.16q0 1.25 1.16 1.25a2.46 2.46 0 0 0 .7-.11v1.39a3.29 3.29 0 0 1-1.12.17 2.44 2.44 0 0 1-1.85-.67 2.68 2.68 0 0 1-.64-1.93v-3.25h-1.36v-1.32h1.36v-1.72l1.75-.59v2.31h1.88v1.32zM99.85 295.31a3.06 3.06 0 0 1-1.26-1.31 4.55 4.55 0 0 1 0-3.91 3.06 3.06 0 0 1 1.26-1.28 3.89 3.89 0 0 1 1.9-.45 3.82 3.82 0 0 1 1.88.45 3.08 3.08 0 0 1 1.25 1.28 4.55 4.55 0 0 1 0 3.91 3.07 3.07 0 0 1-1.25 1.28 3.82 3.82 0 0 1-1.88.45 3.89 3.89 0 0 1-1.9-.42zm3.25-1.5a3.4 3.4 0 0 0 0-3.46 1.83 1.83 0 0 0-2.7 0 3.4 3.4 0 0 0 0 3.46 1.88 1.88 0 0 0 2.72 0zM115.17 288.52v1.6a2.44 2.44 0 0 0-.92-.18 1.75 1.75 0 0 0-1.36.52 2 2 0 0 0-.47 1.37v3.82h-1.74v-5.07a16 16 0 0 0-.11-2h1.64l.14 1.25a2.1 2.1 0 0 1 .84-1 2.38 2.38 0 0 1 1.3-.36 2 2 0 0 1 .68.05zM122.2 292.2h-4.87a2.55 2.55 0 0 0 .57 1.67 2 2 0 0 0 1.52.54 3.49 3.49 0 0 0 2.16-.76l.5 1.2a3.94 3.94 0 0 1-1.24.65 4.69 4.69 0 0 1-1.49.25 3.72 3.72 0 0 1-2.73-1 3.6 3.6 0 0 1-1-2.69 4.11 4.11 0 0 1 .43-1.92 3.2 3.2 0 0 1 1.22-1.31 3.4 3.4 0 0 1 1.78-.47 2.94 2.94 0 0 1 2.3.95 3.75 3.75 0 0 1 .85 2.6zm-4.2-2.13a2 2 0 0 0-.57 1.2h3.29a2 2 0 0 0-.48-1.2 1.47 1.47 0 0 0-1.1-.41 1.6 1.6 0 0 0-1.14.41zM123.22 294.86l.49-1.23a4.24 4.24 0 0 0 2.59.84 1.88 1.88 0 0 0 1-.21.66.66 0 0 0 .34-.59.62.62 0 0 0-.24-.51 2.2 2.2 0 0 0-.81-.33l-1.18-.27q-1.93-.42-1.93-2a1.88 1.88 0 0 1 .36-1.14 2.39 2.39 0 0 1 1-.78 3.87 3.87 0 0 1 1.53-.28 4.64 4.64 0 0 1 1.46.23 3.84 3.84 0 0 1 1.23.67l-.52 1.19a3.65 3.65 0 0 0-2.18-.78 1.68 1.68 0 0 0-.94.22.7.7 0 0 0-.34.62.62.62 0 0 0 .2.49 1.71 1.71 0 0 0 .69.31l1.2.27a3 3 0 0 1 1.53.74 1.78 1.78 0 0 1 .48 1.29 1.83 1.83 0 0 1-.78 1.55 3.56 3.56 0 0 1-2.14.57 4.79 4.79 0 0 1-3.04-.87zM136.35 288.86a3.15 3.15 0 0 1 1.11 1.32 4.5 4.5 0 0 1 .4 1.94 4.42 4.42 0 0 1-.39 1.92 2.9 2.9 0 0 1-2.73 1.72 2.82 2.82 0 0 1-1.37-.33 2.28 2.28 0 0 1-.92-.92v4.16h-1.75v-8.09a16 16 0 0 0-.11-2h1.64l.14 1.22a2.14 2.14 0 0 1 .91-1 2.82 2.82 0 0 1 1.46-.37 2.86 2.86 0 0 1 1.61.43zm-.73 4.94a2.61 2.61 0 0 0 .48-1.68 2.79 2.79 0 0 0-.48-1.73 1.59 1.59 0 0 0-1.34-.62 1.65 1.65 0 0 0-1.37.6 2.72 2.72 0 0 0-.48 1.72 2.66 2.66 0 0 0 .48 1.7 1.85 1.85 0 0 0 2.72 0zM140.69 295.31a3.06 3.06 0 0 1-1.26-1.28 4.55 4.55 0 0 1 0-3.91 3.06 3.06 0 0 1 1.26-1.28 3.89 3.89 0 0 1 1.9-.45 3.82 3.82 0 0 1 1.88.45 3.08 3.08 0 0 1 1.25 1.28 4.55 4.55 0 0 1 0 3.91 3.07 3.07 0 0 1-1.25 1.28 3.82 3.82 0 0 1-1.88.45 3.89 3.89 0 0 1-1.9-.45zm3.25-1.5a3.4 3.4 0 0 0 0-3.46 1.83 1.83 0 0 0-2.7 0 3.4 3.4 0 0 0 0 3.46 1.88 1.88 0 0 0 2.72 0zM154.25 291.31v4.34h-1.75v-4.26a1.9 1.9 0 0 0-.32-1.23 1.23 1.23 0 0 0-1-.38 1.7 1.7 0 0 0-1.29.51 1.87 1.87 0 0 0-.49 1.35v4h-1.74v-5.07a16 16 0 0 0-.11-2h1.64l.13 1.16a2.56 2.56 0 0 1 1-1 2.83 2.83 0 0 1 1.41-.35q2.52.02 2.52 2.93zM162.87 285.34v10.3h-1.72v-1.13a2.28 2.28 0 0 1-.92.92 2.82 2.82 0 0 1-1.37.33 2.93 2.93 0 0 1-1.62-.46 3.08 3.08 0 0 1-1.11-1.31 4.5 4.5 0 0 1-.4-1.94 4.42 4.42 0 0 1 .39-1.92 2.93 2.93 0 0 1 2.74-1.74 2.83 2.83 0 0 1 1.35.32 2.22 2.22 0 0 1 .92.89v-4.26zm-2.21 8.44a2.67 2.67 0 0 0 .48-1.71 2.7 2.7 0 0 0-.48-1.71 1.62 1.62 0 0 0-1.34-.6 1.66 1.66 0 0 0-1.36.59 2.61 2.61 0 0 0-.48 1.69 2.73 2.73 0 0 0 .48 1.72 1.62 1.62 0 0 0 1.35.62 1.63 1.63 0 0 0 1.36-.59zM171 292.2h-4.87a2.55 2.55 0 0 0 .57 1.67 2 2 0 0 0 1.52.54 3.49 3.49 0 0 0 2.16-.76l.5 1.2a3.94 3.94 0 0 1-1.24.65 4.69 4.69 0 0 1-1.49.25 3.72 3.72 0 0 1-2.73-1 3.6 3.6 0 0 1-1-2.69 4.11 4.11 0 0 1 .43-1.92 3.2 3.2 0 0 1 1.22-1.31 3.4 3.4 0 0 1 1.78-.47 2.94 2.94 0 0 1 2.3.95 3.75 3.75 0 0 1 .85 2.6zm-4.25-2.13a2 2 0 0 0-.57 1.2h3.29a2 2 0 0 0-.48-1.2 1.47 1.47 0 0 0-1.1-.41 1.6 1.6 0 0 0-1.18.41zM177 288.52v1.6a2.44 2.44 0 0 0-.92-.18 1.75 1.75 0 0 0-1.36.52 2 2 0 0 0-.47 1.37v3.82h-1.74v-5.07a16 16 0 0 0-.11-2h1.6l.14 1.25a2.1 2.1 0 0 1 .84-1 2.38 2.38 0 0 1 1.3-.36 2 2 0 0 1 .72.05zM184 292.2h-4.87a2.55 2.55 0 0 0 .57 1.67 2 2 0 0 0 1.52.54 3.49 3.49 0 0 0 2.16-.76l.5 1.2a3.94 3.94 0 0 1-1.24.65 4.69 4.69 0 0 1-1.49.25 3.72 3.72 0 0 1-2.73-1 3.6 3.6 0 0 1-1-2.69 4.11 4.11 0 0 1 .43-1.92 3.2 3.2 0 0 1 1.22-1.31 3.4 3.4 0 0 1 1.78-.47 2.94 2.94 0 0 1 2.3.95 3.75 3.75 0 0 1 .85 2.6zm-4.25-2.13a2 2 0 0 0-.57 1.2h3.29a2 2 0 0 0-.48-1.2 1.47 1.47 0 0 0-1.1-.41 1.6 1.6 0 0 0-1.16.41zm1.66-2.4h-1.13l1.4-2.88h1.79zM191.53 289.89v3.16q0 1.25 1.16 1.25a2.46 2.46 0 0 0 .7-.11v1.39a3.29 3.29 0 0 1-1.12.17 2.44 2.44 0 0 1-1.85-.67 2.68 2.68 0 0 1-.64-1.93v-3.25h-1.36v-1.32h1.36v-1.72l1.75-.59v2.31h1.88v1.32zM201 288.58v7.07h-1.71v-1.09a2.3 2.3 0 0 1-.9.9 2.63 2.63 0 0 1-1.29.31q-2.59 0-2.59-2.91v-4.27h1.74v4.28a1.7 1.7 0 0 0 .31 1.13 1.22 1.22 0 0 0 1 .36 1.59 1.59 0 0 0 1.23-.5 1.91 1.91 0 0 0 .46-1.34v-3.93zM212.44 288.86a3.15 3.15 0 0 1 1.11 1.32 4.5 4.5 0 0 1 .4 1.94 4.42 4.42 0 0 1-.39 1.92 2.9 2.9 0 0 1-2.73 1.72 2.82 2.82 0 0 1-1.37-.33 2.28 2.28 0 0 1-.92-.92v4.16h-1.74v-8.09a16 16 0 0 0-.11-2h1.64l.14 1.22a2.14 2.14 0 0 1 .91-1 2.82 2.82 0 0 1 1.46-.37 2.86 2.86 0 0 1 1.6.43zm-.73 4.94a2.61 2.61 0 0 0 .48-1.68 2.79 2.79 0 0 0-.48-1.73 1.59 1.59 0 0 0-1.34-.62 1.65 1.65 0 0 0-1.37.6 2.72 2.72 0 0 0-.48 1.72 2.66 2.66 0 0 0 .48 1.7 1.85 1.85 0 0 0 2.72 0zM221.66 292.2h-4.87a2.55 2.55 0 0 0 .57 1.67 2 2 0 0 0 1.52.54 3.49 3.49 0 0 0 2.16-.76l.5 1.2a3.94 3.94 0 0 1-1.24.65 4.69 4.69 0 0 1-1.49.25 3.72 3.72 0 0 1-2.73-1 3.6 3.6 0 0 1-1-2.69 4.11 4.11 0 0 1 .43-1.92 3.2 3.2 0 0 1 1.22-1.31 3.4 3.4 0 0 1 1.78-.47 2.94 2.94 0 0 1 2.3.95 3.75 3.75 0 0 1 .85 2.6zm-4.25-2.13a2 2 0 0 0-.57 1.2h3.29a2 2 0 0 0-.48-1.2 1.47 1.47 0 0 0-1.1-.41 1.6 1.6 0 0 0-1.14.41zM225.27 289.89v3.16q0 1.25 1.16 1.25a2.46 2.46 0 0 0 .7-.11v1.39a3.29 3.29 0 0 1-1.12.17 2.44 2.44 0 0 1-1.85-.67 2.68 2.68 0 0 1-.64-1.93v-3.25h-1.36v-1.32h1.36v-1.72l1.75-.59v2.31h1.88v1.32zM228.24 285.37h1.95v1.72h-1.95zm.11 10.28v-7.07h1.74v7.07zM233.29 295.31A3 3 0 0 1 232 294a4.06 4.06 0 0 1-.43-1.93 4 4 0 0 1 .46-1.95 3.25 3.25 0 0 1 1.29-1.31 3.86 3.86 0 0 1 1.92-.47 4.54 4.54 0 0 1 1.46.24 2.85 2.85 0 0 1 1.13.66l-.49 1.23a3.41 3.41 0 0 0-1-.55 2.82 2.82 0 0 0-1-.19 1.89 1.89 0 0 0-1.48.59 3 3 0 0 0 0 3.42 1.9 1.9 0 0 0 1.49.59 2.73 2.73 0 0 0 1-.2 3.56 3.56 0 0 0 1-.56l.49 1.23a3.1 3.1 0 0 1-1.16.66 4.72 4.72 0 0 1-1.5.24 3.91 3.91 0 0 1-1.89-.39zM238.93 285.37h1.95v1.72h-1.95zm.11 10.28v-7.07h1.74v7.07zM244 295.31a3.06 3.06 0 0 1-1.26-1.28 4.55 4.55 0 0 1 0-3.91 3.06 3.06 0 0 1 1.26-1.28 3.89 3.89 0 0 1 1.9-.45 3.82 3.82 0 0 1 1.88.45 3.08 3.08 0 0 1 1.25 1.28 4.55 4.55 0 0 1 0 3.91 3.07 3.07 0 0 1-1.25 1.28 3.82 3.82 0 0 1-1.88.45 3.89 3.89 0 0 1-1.9-.45zm3.25-1.5a3.4 3.4 0 0 0 0-3.46 1.83 1.83 0 0 0-2.7 0 3.4 3.4 0 0 0 0 3.46 1.88 1.88 0 0 0 2.72 0zm-.79-6.14h-1.13l1.4-2.88h1.79zM257.57 291.31v4.34h-1.75v-4.26a1.9 1.9 0 0 0-.32-1.23 1.23 1.23 0 0 0-1-.38 1.7 1.7 0 0 0-1.29.51 1.87 1.87 0 0 0-.49 1.35v4H251v-5.07a16 16 0 0 0-.11-2h1.64l.13 1.16a2.56 2.56 0 0 1 1-1 2.83 2.83 0 0 1 1.41-.35q2.5.02 2.5 2.93z"/><path class="cls-6" d="M222.89 91.21a52.64 52.64 0 0 0 1.2-9.68c-.27-7.79-1.88-60.21-34.14-46.5 0 0-30.64-25.53-73.11 4.57C86.39 61.18 86.47 85 91.29 100.19c.4 5.08 2 8 4 9.51.83 1.53 1.62 2.82 2.29 3.82 6.32 9.41 9 15.86 0 23.34-10.41 8.64-.14 18.26 19.22 17.51 14-.54.81 29.56-8.6 15.59 0 0 10.48 21 36 15.59s29.83-15.05 36.28-28 9.14-10.22 22.58-9.68 22.77-13.17 18.64-26.61a34.88 34.88 0 0 1-1.34-10.25c3.6 0 7.6-2.2 9.38-10.54.06.05 2.46-10.02-6.85-9.26z"/><path class="cls-7" d="M189.95 35s-30.64-25.5-73.11 4.6-25.55 64.51-19.22 73.91 9 15.86 0 23.34c-10.41 8.64-.14 18.26 19.22 17.51 14-.54.81 29.56-8.6 15.59 0 0 10.48 21 36 15.59s29.83-15.05 36.28-28 9.14-10.22 22.58-9.68 22.77-13.17 18.64-26.61 2.59-32 2.32-39.78S222.2 21.32 189.95 35z"/><path class="cls-8" d="M159.2 136.35s-5.08 5.35-.95 13.49-3.21 16-3.21 16 4.92-9.48 1.09-15.54-6.51-14.62 3.07-13.95zM125.71 129.72s-5.6 7.14 8.05 12.56 16.09 34.48-6.31 35.88c0 0 29-.5 20-30.46-4-13.3-27.13-19.52-9.28-25.34s-12.46 7.36-12.46 7.36z"/><path class="cls-8" d="M214.41 105.89c10.37-22.27 2.75 3.17 4.11 19.23 1.07 12.63-9.82 16.27-27.58 15.22s-20.35 8.39-20.18 17.32c.24 11.93-8 23.12-36.4 22.77 0 0 29.53.45 29.53-16.27 0-24.78 11.73-32.12 25-31.42s24.7-3.1 24.6-11.86a89.78 89.78 0 0 1 .92-14.99zM184.34 55.63S160.53 68.76 149.86 80c0 0 4.38-18.41 34.48-24.37zM182.35 49s-35.57 8.23-60.69 33.16c-.01-.01 16.12-30.16 60.69-33.16z"/><path class="cls-8" d="M184.34 44.41s-59.69-4.38-81 41.31c-.04 0 9.76-53.39 81-41.31z"/><path class="cls-8" d="M184.34 36.91s-38.66-21.36-77.79 17.33c0 0 36.45-29.32 77.79-17.33z"/><path class="cls-9" d="M91.23 99.26s-1.07-15.05 15.32-4.84l-.64 15.82S92 116.46 91.23 99.26zM229.8 100.52s3.5-14.68-14.33-7.26L213.53 109s12.69 8.36 16.27-8.48z"/><ellipse class="cls-10" cx="219.59" cy="101.12" rx="7.15" ry="5.88" transform="rotate(-68.88 219.575 101.12)"/><ellipse class="cls-10" cx="99.64" cy="102.09" rx="5.88" ry="7.15" transform="rotate(-23.99 99.663 102.094)"/><path class="cls-9" d="M161.85 139.13c27.1.17 53.22-10.21 55.37-48.38 0 0-29-16.39-27.68-27.68 0 0-21.5 19.08-49.45 22.31l8.06-8.38s-28.76 14.52-42.2 16.4c0 0-1.69 11 1 20.62 3.56 12.42 13.74 24.86 54.9 25.11z"/><path class="cls-10" d="M147.7 99.48c0 9.23-5.83 16.72-13 16.72s-13-7.48-13-16.72 5.83-15.11 13-15.11 13 5.88 13 15.11z"/><path class="cls-11 cls-10" d="M190.46 66c-.83.5-29.32 25.51-57.85 29.66l4.17-11.36s-27.63 14.34-37.94 21.25c-3.92 2.63 5.79-20.91 5.79-20.91l83.85-27.75 29.82 27.92-1.95 7.19s-22.45-28-25.89-26z"/><ellipse class="cls-10" cx="183.79" cy="99.48" rx="13.03" ry="16.72"/><path class="cls-10" d="M183.16 121.66s1.25 13.52-5.26 10.95-2.78-8-2.78-8z"/><ellipse class="cls-12" cx="183.79" cy="98.05" rx="12.1" ry="13.3"/><ellipse class="cls-12" cx="134.68" cy="98.05" rx="12.1" ry="13.3"/><path class="cls-13" d="M134.68 124s18 6.72 49.66-2.69"/><path class="cls-14" d="M178.16 132.23s4.84-.48 2.42-9.87c0 0-4.37 1.26-8.89 2 0 .05.31 10.29 6.47 7.87z"/><ellipse class="cls-15" cx="182.35" cy="98.39" rx="8.91" ry="9.57"/><ellipse class="cls-15" cx="136.36" cy="98.39" rx="8.91" ry="9.57"/><path class="cls-16" d="M175.12 124.62c-.54 0 2.27 7.26 2.62 4.46a22.23 22.23 0 0 0 0-5.26z"/><path class="cls-17" d="M156.55 96.99h4.78v4.97h-4.78z"/><path class="cls-13" d="M161.85 139.15c27.1.16 53.22-10.22 55.37-48.38 0 0-29-16.4-27.68-27.68 0 0-21.5 19.08-49.45 22.31l8.06-8.33s-28.76 14.52-42.2 16.4c0 0-1.69 11 1 20.62 3.56 12.37 13.74 24.81 54.9 25.06z"/><path class="cls-18" d="M176.28 76.12h19.08s7.53-.23 8.6 10.52 1.61 18.82 0 23.12-2.42 7.26-8.6 8.33-21.23 2.15-25.8 0-6.72-2.15-7.53-9.95S161 91.21 162 86.37c.94-4.23.59-7.9 6.1-9.63.82-.25 8.18-.62 8.18-.62z"/><path class="cls-13" d="M176.28 76.12h19.08s7.53-.23 8.6 10.52 1.61 18.82 0 23.12-2.42 7.26-8.6 8.33-21.23 2.15-25.8 0-6.72-2.15-7.53-9.95S161 91.21 162 86.37c.94-4.23.59-7.9 6.1-9.63.82-.25 8.18-.62 8.18-.62z"/><path class="cls-18" d="M127.81 76.12h19.08s7.53-.23 8.6 10.52 1.61 18.82 0 23.12-2.42 7.26-8.6 8.33-21.23 2.15-25.8 0-6.72-2.15-7.53-9.95-1.08-16.93 0-21.77c.94-4.23.59-7.9 6.1-9.63.78-.25 8.15-.62 8.15-.62z"/><path class="cls-13" d="M127.81 76.12h19.08s7.53-.23 8.6 10.52 1.61 18.82 0 23.12-2.42 7.26-8.6 8.33-21.23 2.15-25.8 0-6.72-2.15-7.53-9.95-1.08-16.93 0-21.77c.94-4.23.59-7.9 6.1-9.63.78-.25 8.15-.62 8.15-.62z"/><path class="cls-8" d="M191.26 57.91s12.71 28.73 27 29.25a190 190 0 0 1-27-29.25zM192.92 52.31s18.73 25.19 25.38 29.84c0 0-3.78-11.93-25.38-29.84zM191.26 41.28s13.92-11.39 24.25 5.77c-.01 0-14.19-12.05-24.25-5.77zM107.33 123.82s3.59 7.1-2.7 14.61c-5.18 6.19 3.22 8.58 11.62 10.33s22.81 1 6.33 26.78c0 0 24-22.4 4.87-27.66s-20.39-7.88-17.55-13-1-9.4-2.57-11.06z"/><path class="cls-19" d="M235 51.88c.64 2.57 15.45 32.18 15.45 32.18L298 64.82l-14.73-34.64z"/><path class="cls-19" d="M268.33 58.96L235 51.88 283.27 30l-14.94 28.96z"/></g></g></svg>