<svg id="SVGS" xmlns="http://www.w3.org/2000/svg" viewBox="0 0 34.49 35"><defs><style>.cls-1{fill:none;stroke:#ababab;stroke-miterlimit:10;stroke-width:.7px}.cls-2{fill:#ababab}.cls-3{fill:#fff}</style></defs><title>MARYOOTORY-MOVIL-SVG</title><path class="cls-1" d="M17.24 34.15A16.65 16.65 0 1 1 33.89 17.5a16.67 16.67 0 0 1-16.65 16.65z"/><circle class="cls-2" cx="17.24" cy="17.5" r="14.29"/><path class="cls-3" d="M17.26 11h3.34a4.57 4.57 0 0 1 1.53.28 2.74 2.74 0 0 1 1.57 1.57 4.57 4.57 0 0 1 .3 1.61v6.68a4.57 4.57 0 0 1-.28 1.53 2.74 2.74 0 0 1-1.57 1.57 4.57 4.57 0 0 1-1.53.28h-6.68a4.57 4.57 0 0 1-1.53-.28 2.74 2.74 0 0 1-1.57-1.57 4.57 4.57 0 0 1-.28-1.53V17.8v-3.34a4.57 4.57 0 0 1 .28-1.53 2.74 2.74 0 0 1 1.57-1.57 4.57 4.57 0 0 1 1.53-.28h3.34m0-1.49h-3.41a6.06 6.06 0 0 0-2 .38 4.22 4.22 0 0 0-2.42 2.42 6.06 6.06 0 0 0-.38 2v6.82a6.06 6.06 0 0 0 .38 2 4.22 4.22 0 0 0 2.42 2.42 6.07 6.07 0 0 0 2 .38h6.82a6.07 6.07 0 0 0 2-.38 4.22 4.22 0 0 0 2.42-2.42 6.06 6.06 0 0 0 .38-2V17.8v-3.41a6.06 6.06 0 0 0-.38-2A4.22 4.22 0 0 0 22.67 10a6.06 6.06 0 0 0-2-.38h-3.41"/><path class="cls-3" d="M17.26 13.56a4.24 4.24 0 1 0 4.24 4.24 4.24 4.24 0 0 0-4.24-4.24m0 7A2.75 2.75 0 1 1 20 17.8a2.75 2.75 0 0 1-2.75 2.75M22.66 13.39a1 1 0 1 1-1-1 1 1 0 0 1 1 1"/></svg>