<svg id="SVGS" xmlns="http://www.w3.org/2000/svg" viewBox="0 0 34.49 35"><defs><style>.cls-1{fill:none;stroke:#29abe2;stroke-miterlimit:10;stroke-width:.7px}.cls-2{fill:#29abe2}.cls-3{fill:#fff}</style></defs><title>MARYOOTORY-MOVIL-SVG</title><path class="cls-1" d="M17.24 34.15A16.65 16.65 0 1 1 33.89 17.5a16.67 16.67 0 0 1-16.65 16.65z"/><circle class="cls-2" cx="17.24" cy="17.5" r="14.29"/><path class="cls-3" d="M18.09 10.31H9.94v8.63s.47 7.53 8.16 7.53c6.43 0 8-5.8 8-8.16-.01-2.04-1.58-8-8.01-8zm0 13.72a5.57 5.57 0 1 1 5.57-5.57A5.57 5.57 0 0 1 18.09 24z"/><path class="cls-3" d="M18.09 14.46a4.16 4.16 0 1 0 4.16 4.16 4.16 4.16 0 0 0-4.16-4.16zm0 6.2a2.08 2.08 0 1 1 2.08-2.08 2.08 2.08 0 0 1-2.08 2.08z"/></svg>