<svg xmlns="http://www.w3.org/2000/svg" viewBox="0 0 143 168"><defs><style>.cls-1,.cls-10{fill:none}.cls-2{isolation:isolate}.cls-3,.cls-9{fill:#fff}.cls-3{stroke:#fff;stroke-width:5.33px}.cls-10,.cls-11,.cls-12,.cls-3,.cls-4,.cls-6,.cls-9{stroke-linecap:round;stroke-linejoin:round}.cls-4{fill:#724626}.cls-10,.cls-11,.cls-12,.cls-14,.cls-4,.cls-6,.cls-9{stroke:#22201b}.cls-10,.cls-11,.cls-12,.cls-4,.cls-6,.cls-9{stroke-width:1.2px}.cls-5{fill:#56351b}.cls-6{fill:#f4ddd0}.cls-7{fill:#efccbd}.cls-8{clip-path:url(#clip-path)}.cls-11{fill:#cf482b}.cls-12,.cls-14{fill:#22201b}.cls-13{fill:#bd3d2b}.cls-14{stroke-miterlimit:10;stroke-width:.77px}.cls-15{fill:#8fcadd;opacity:.25;mix-blend-mode:multiply}</style><clipPath id="clip-path"><path class="cls-1" d="M73.05 117.65c27.1.17 53.22-10.21 55.37-48.38 0 0-29-16.39-27.68-27.68 0 0-21.5 19.08-49.46 22.31l8.06-8.33S30.59 70.07 17.15 72c0 0-1.69 11 1 20.62 3.56 12.38 13.74 24.78 54.9 25.03z"/></clipPath></defs><title>MARYOOTORY-MOVIL-SVG</title><g class="cls-2"><g id="SVGS"><path class="cls-3" d="M134.89 69.53a52.64 52.64 0 0 0 1.2-9.68c-.27-7.79-1.88-60.21-34.14-46.5 0 0-30.64-25.53-73.11 4.57C-1.61 39.51-1.53 63.3 3.29 78.51c.4 5.08 2 8 4 9.51.83 1.53 1.62 2.82 2.29 3.82 6.32 9.41 9 15.86 0 23.34-10.41 8.64-.14 18.26 19.22 17.51 14-.54.81 29.56-8.6 15.59 0 0 10.48 21 36 15.59s29.83-15.05 36.28-28 9.14-10.22 22.58-9.68 22.77-13.17 18.64-26.61a34.88 34.88 0 0 1-1.34-10.25c3.6 0 7.6-2.2 9.38-10.54.06.05 2.46-10.02-6.85-9.26z"/><path class="cls-4" d="M101.95 13.35s-30.64-25.53-73.11 4.57S3.29 82.43 9.62 91.84s9 15.86 0 23.34c-10.41 8.64-.14 18.26 19.22 17.51 14-.54.81 29.56-8.6 15.59 0 0 10.48 21 36 15.59s29.83-15.05 36.28-28 9.14-10.22 22.58-9.68 22.77-13.17 18.64-26.61 2.59-32 2.32-39.78-1.86-60.15-34.11-46.45z"/><path class="cls-5" d="M71.2 114.68s-5.08 5.35-.95 13.49-3.21 16-3.21 16 4.92-9.48 1.09-15.54-6.51-14.63 3.07-13.95zM37.71 108s-5.6 7.14 8.05 12.56 16.09 34.48-6.31 35.88c0 0 29-.5 20-30.46-4-13.3-27.13-19.52-9.28-25.34S37.71 108 37.71 108z"/><path class="cls-5" d="M126.41 84.22c10.37-22.27 2.75 3.17 4.11 19.23 1.07 12.63-9.82 16.27-27.58 15.22S82.59 127.06 82.76 136c.24 11.93-8 23.12-36.4 22.77 0 0 29.53.45 29.53-16.27 0-24.78 11.73-32.12 25-31.42s24.7-3.1 24.6-11.86a89.78 89.78 0 0 1 .92-15zM96.34 34S72.53 47.09 61.86 58.29c0 0 4.38-18.38 34.48-24.29zM94.35 27.31s-35.57 8.22-60.7 33.16c0 0 16.13-30.19 60.7-33.16z"/><path class="cls-5" d="M96.34 22.73S36.66 18.35 15.3 64c0 0 9.8-53.34 81.04-41.27z"/><path class="cls-5" d="M96.34 15.23S57.69-6.13 18.55 32.56c0 0 36.45-29.31 77.79-17.33z"/><path class="cls-6" d="M3.23 77.58s-1.07-15.05 15.32-4.84l-.64 15.82S4 94.78 3.23 77.58zM141.8 78.84s3.5-14.68-14.33-7.26l-1.93 15.72s12.68 8.39 16.26-8.46z"/><ellipse class="cls-7" cx="131.59" cy="79.44" rx="7.15" ry="5.88" transform="rotate(-68.88 131.584 79.438)"/><ellipse class="cls-7" cx="11.64" cy="80.42" rx="5.88" ry="7.15" transform="rotate(-23.99 11.642 80.417)"/><path class="cls-6" d="M73.85 117.46c27.1.17 53.22-10.21 55.37-48.38 0 0-29-16.39-27.68-27.68 0 0-21.5 19.08-49.45 22.31l8.06-8.33s-28.76 14.52-42.2 16.4c0 0-1.69 11 1 20.62 3.56 12.37 13.74 24.81 54.9 25.06z"/><path class="cls-7" d="M59.7 77.8c0 9.23-5.83 16.72-13 16.72s-13-7.48-13-16.72 5.83-15.11 13-15.11 13 5.88 13 15.11z"/><path class="cls-8 cls-7" d="M102.46 44.36c-.83.5-29.32 25.51-57.85 29.66l4.17-11.36S21.15 77 10.84 83.92C6.92 86.54 16.63 63 16.63 63l83.85-27.75 29.82 27.89-1.95 7.23s-22.45-28.09-25.89-26.01z"/><ellipse class="cls-7" cx="95.79" cy="77.8" rx="13.03" ry="16.72"/><path class="cls-7" d="M95.16 100s1.25 13.52-5.26 10.95-2.78-8-2.78-8z"/><ellipse class="cls-9" cx="95.79" cy="76.38" rx="12.1" ry="13.3"/><ellipse class="cls-9" cx="46.68" cy="76.38" rx="12.1" ry="13.3"/><path class="cls-10" d="M46.68 102.32s18 6.72 49.66-2.69"/><path class="cls-11" d="M90.16 110.56s4.84-.48 2.42-9.87c0 0-4.37 1.26-8.89 2 0 .04.31 10.31 6.47 7.87z"/><ellipse class="cls-12" cx="94.35" cy="76.71" rx="8.91" ry="9.57"/><ellipse class="cls-12" cx="48.36" cy="76.71" rx="8.91" ry="9.57"/><path class="cls-13" d="M87.12 102.94c-.54 0 2.27 7.26 2.62 4.46a22.23 22.23 0 0 0 0-5.26z"/><path class="cls-14" d="M68.55 75.32h4.78v4.97h-4.78z"/><path class="cls-10" d="M73.85 117.47c27.1.16 53.22-10.22 55.37-48.38 0 0-29-16.4-27.68-27.68 0 0-21.5 19.08-49.45 22.31l8.06-8.33S31.39 69.9 17.95 71.78c0 0-1.69 11 1 20.62 3.56 12.38 13.74 24.82 54.9 25.07z"/><path class="cls-15" d="M88.28 54.44h19.08s7.53-.23 8.6 10.52 1.61 18.82 0 23.12-2.42 7.26-8.6 8.33-21.23 2.15-25.8 0-6.72-2.15-7.56-9.95-1-16.93 0-21.77c.94-4.23.59-7.9 6.1-9.63.82-.24 8.18-.62 8.18-.62z"/><path class="cls-10" d="M88.28 54.44h19.08s7.53-.23 8.6 10.52 1.61 18.82 0 23.12-2.42 7.26-8.6 8.33-21.23 2.15-25.8 0-6.72-2.15-7.56-9.95-1-16.93 0-21.77c.94-4.23.59-7.9 6.1-9.63.82-.24 8.18-.62 8.18-.62z"/><path class="cls-15" d="M39.81 54.44h19.08s7.53-.23 8.6 10.52 1.61 18.82 0 23.12-2.42 7.26-8.6 8.33-21.23 2.15-25.8 0-6.72-2.15-7.53-9.95-1.08-16.93 0-21.77c.94-4.23.59-7.9 6.1-9.63.78-.24 8.15-.62 8.15-.62z"/><path class="cls-10" d="M39.81 54.44h19.08s7.53-.23 8.6 10.52 1.61 18.82 0 23.12-2.42 7.26-8.6 8.33-21.23 2.15-25.8 0-6.72-2.15-7.53-9.95-1.08-16.93 0-21.77c.94-4.23.59-7.9 6.1-9.63.78-.24 8.15-.62 8.15-.62z"/><path class="cls-5" d="M103.26 36.23S116 65 130.3 65.49a190 190 0 0 1-27.04-29.26zM104.92 30.63s18.73 25.19 25.38 29.84c0 0-3.78-11.92-25.38-29.84zM103.26 19.6s13.92-11.39 24.25 5.77c-.01 0-14.19-12.07-24.25-5.77zM19.33 102.14s3.59 7.1-2.7 14.61c-5.18 6.19 3.22 8.58 11.62 10.33s22.81 1 6.33 26.78c0 0 24-22.4 4.87-27.66s-20.39-7.88-17.55-13-1-9.4-2.57-11.06z"/></g></g></svg>