<svg id="SVGS" xmlns="http://www.w3.org/2000/svg" viewBox="0 0 88.31 82"><defs><style>.cls-1{fill:#0078bb}.cls-1,.cls-2,.cls-3{stroke:#0078bb;stroke-linecap:round;stroke-linejoin:round;stroke-width:1.21px}.cls-2{fill:#fff}.cls-3{fill:none}</style></defs><title>MARYOOTORY-MOVIL-SVG</title><path class="cls-1" d="M1.16 36.76h27.11v38.98H1.16z"/><circle class="cls-2" cx="18.95" cy="71.07" r="2.54"/><path class="cls-3" d="M28.27 41.56s18.64-17.94 17.37-24.72.14-11.44 5.58-11.65 8.4 5.72 8.4 11.65-2.54 16.52-2.54 16.52h25s5.08 1.69 5.08 5.08-1.28 5.56-4.66 5.94c0 0 2.54 3 2.12 6.35S80 55 80 55a6.11 6.11 0 0 1 1.69 5.93c-.85 3.81-5.08 3.39-5.08 3.39s3.39 3.39 2.12 6.78c0 0 3 8-34.32 5.08 0 0-14.4-6.78-16.1-2.54"/></svg>